<svg xmlns="http://www.w3.org/2000/svg" viewBox="0 0 200 200" width="200" height="200">
<title>Cecropia moth — Hyalophora cecropia</title>
<desc>Cecropia moth wings beat in a slow, majestic flutter showing off rich russet patterns.</desc>
<g transform="translate(100, 100)">
  <g transform="translate(0 4)">
    <animateTransform attributeName="transform" type="scale" additive="sum" values="1 1; 0.25 1; 1 1" dur="1.1s" repeatCount="indefinite"/>
    <path d="M -10 -4 Q -44 -16 -46 10 Q -42 28 -22 24 Q -16 10 -10 2 Z" fill="#7a4028"/>
    <path d="M -42 -12 Q -44 -6 -38 0" stroke="#a85028" stroke-width="2" fill="none"/>
    <path d="M -36 12 Q -30 18 -22 18" stroke="#dca888" stroke-width="2" fill="none"/>
    <circle cx="-32" cy="-2" r="3" fill="#0d0d0d"/>
    <circle cx="-32" cy="-2" r="1.5" fill="#ffffff"/>
    <path d="M 10 -4 Q 44 -16 46 10 Q 42 28 22 24 Q 16 10 10 2 Z" fill="#7a4028"/>
    <path d="M 42 -12 Q 44 -6 38 0" stroke="#a85028" stroke-width="2" fill="none"/>
    <path d="M 36 12 Q 30 18 22 18" stroke="#dca888" stroke-width="2" fill="none"/>
    <circle cx="32" cy="-2" r="3" fill="#0d0d0d"/>
    <circle cx="32" cy="-2" r="1.5" fill="#ffffff"/>
  </g>
  <ellipse cx="0" cy="4" rx="11" ry="18" fill="#a85028"/>
  <path d="M -5 -8 Q -12 -16 -14 -22" stroke="#0d0d0d" stroke-width="1.5" fill="none" stroke-linecap="round"/>
  <path d="M 5 -8 Q 12 -16 14 -22" stroke="#0d0d0d" stroke-width="1.5" fill="none" stroke-linecap="round"/>
  <circle cx="-5" cy="-8" r="4" fill="#ffffff"/>
  <circle cx="5" cy="-8" r="4" fill="#ffffff"/>
  <circle cx="-5" cy="-7" r="2.8" fill="#b91c1c"/>
  <circle cx="5" cy="-7" r="2.8" fill="#b91c1c"/>
  <circle cx="-5" cy="-6" r="1.6" fill="#0d0d0d"/>
  <circle cx="5" cy="-6" r="1.6" fill="#0d0d0d"/>
  <circle cx="-4" cy="-9" r="1" fill="#ffffff"/>
  <circle cx="6" cy="-9" r="1" fill="#ffffff"/>
  <path d="M -3 2 Q 0 4 3 2" stroke="#0d0d0d" stroke-width="1" fill="none" stroke-linecap="round"/>
</g>
</svg>
