<svg xmlns="http://www.w3.org/2000/svg" viewBox="0 0 200 200" width="200" height="200">
<title>Black-capped chickadee — Poecile atricapillus</title>
<g transform="translate(100, 100)">
<ellipse cx="-32" cy="6" rx="26" ry="11" fill="#e8f0f5" opacity="0.6" transform="rotate(-25 -32 6)" stroke="#9aa5ab" stroke-width="0.5"/>
<ellipse cx="-32" cy="8" rx="23" ry="8" fill="#9aa5ab" opacity="0.35" transform="rotate(-18 -32 8)"/>
<ellipse cx="32" cy="6" rx="26" ry="11" fill="#e8f0f5" opacity="0.6" transform="rotate(25 32 6)" stroke="#9aa5ab" stroke-width="0.5"/>
<ellipse cx="32" cy="8" rx="23" ry="8" fill="#9aa5ab" opacity="0.35" transform="rotate(18 32 8)"/>
<ellipse cx="0" cy="24" rx="23" ry="25" fill="#ffffff"/>
<ellipse cx="0" cy="14" rx="23" ry="14" fill="#5a6068"/>
<line x1="-5" y1="46" x2="-5" y2="54" stroke="#3a3a3a" stroke-width="1.6" stroke-linecap="round"/>
<line x1="5" y1="46" x2="5" y2="54" stroke="#3a3a3a" stroke-width="1.6" stroke-linecap="round"/>
<circle cx="0" cy="-14" r="25" fill="#ffffff"/>
<path d="M -25 -14 Q -25 -38 0 -42 Q 25 -38 25 -14 Q 0 -24 -25 -14 Z" fill="#0d0d0d"/>
<ellipse cx="0" cy="3" rx="13" ry="8" fill="#0d0d0d"/>
<circle cx="-9" cy="-14" r="6" fill="#ffffff"/>
<circle cx="9" cy="-14" r="6" fill="#ffffff"/>
<circle cx="-9" cy="-13" r="4.3" fill="#fcd34d"/>
<circle cx="9" cy="-13" r="4.3" fill="#fcd34d"/>
<circle cx="-7" cy="-11" r="2.4" fill="#0d0d0d"/>
<circle cx="11" cy="-11" r="2.4" fill="#0d0d0d"/>
<circle cx="-11" cy="-16" r="1.5" fill="#ffffff"/>
<circle cx="7" cy="-16" r="1.5" fill="#ffffff"/>
<circle cx="-5" cy="-10" r="0.7" fill="#ffffff"/>
<circle cx="13" cy="-10" r="0.7" fill="#ffffff"/>
<path d="M -2 -3 L 6 1 L 5 3 L -2 4 Z" fill="#3a3a3a"/>
<path d="M -5 5 Q 0 9 5 5" stroke="#ffffff" stroke-width="1.6" fill="none" stroke-linecap="round"/>
</g>
</svg>
