<svg xmlns="http://www.w3.org/2000/svg" viewBox="0 0 200 200" width="200" height="200">
<title>Redback salamander — Plethodon cinereus</title>
<g transform="translate(100, 100)">
<ellipse cx="6" cy="0" rx="32" ry="11" fill="#1a1a1a"/>
<path d="M 38 0 Q 50 -2 54 -4 Q 50 4 38 6 Z" fill="#1a1a1a"/>
<rect x="-22" y="-3" width="60" height="5" rx="2.5" fill="#ea580c"/>
<ellipse cx="-14" cy="12" rx="3.5" ry="3" fill="#1a1a1a"/>
<ellipse cx="-2" cy="12" rx="3.5" ry="3" fill="#1a1a1a"/>
<ellipse cx="14" cy="12" rx="3.5" ry="3" fill="#1a1a1a"/>
<ellipse cx="26" cy="12" rx="3.5" ry="3" fill="#1a1a1a"/>
<ellipse cx="-30" cy="-1" rx="15" ry="12" fill="#1a1a1a"/>
<circle cx="-36" cy="-3" r="4.5" fill="#ffffff"/>
<circle cx="-24" cy="-3" r="4.5" fill="#ffffff"/>
<circle cx="-36" cy="-2" r="3.2" fill="#06b6d4"/>
<circle cx="-24" cy="-2" r="3.2" fill="#06b6d4"/>
<circle cx="-36" cy="-1" r="1.8" fill="#0d0d0d"/>
<circle cx="-24" cy="-1" r="1.8" fill="#0d0d0d"/>
<circle cx="-35" cy="-4" r="1.1" fill="#ffffff"/>
<circle cx="-23" cy="-4" r="1.1" fill="#ffffff"/>
<path d="M -40 5 Q -30 9 -20 5" stroke="#3a3a3a" stroke-width="1.2" fill="none" stroke-linecap="round"/>
</g>
</svg>
