<svg xmlns="http://www.w3.org/2000/svg" viewBox="0 0 200 200" width="200" height="200">
<title>Common snapping turtle — Chelydra serpentina</title>
<g transform="translate(100, 100)">
<ellipse cx="0" cy="14" rx="32" ry="22" fill="#5a4828"/>
<path d="M -28 8 L -22 4 M -16 6 L -10 2 M -4 8 L 2 4 M 10 6 L 16 2 M 22 8 L 28 4" stroke="#3a3018" stroke-width="0.8"/>
<path d="M -28 16 L -22 12 M -16 18 L -10 14 M -4 16 L 2 12 M 10 18 L 16 14 M 22 16 L 28 12" stroke="#3a3018" stroke-width="0.8"/>
<path d="M -28 24 L -22 20 M -16 26 L -10 22 M -4 24 L 2 20 M 10 26 L 16 22 M 22 24 L 28 20" stroke="#3a3018" stroke-width="0.8"/>
<path d="M 30 18 L 38 12 L 42 16 L 40 22 L 44 20 L 42 28 L 36 26 L 38 32 L 32 28 Z" fill="#5a4828"/>
<ellipse cx="-22" cy="38" rx="6" ry="4" fill="#3a3018"/>
<ellipse cx="22" cy="38" rx="6" ry="4" fill="#3a3018"/>
<ellipse cx="-26" cy="-8" rx="20" ry="14" fill="#6a5838"/>
<path d="M -42 -4 L -28 -2 L -28 0 L -42 4 Z" fill="#3a2818"/>
<path d="M -42 -2 L -28 -1 L -28 1 L -42 3 Z" fill="#5a4030"/>
<circle cx="-34" cy="-10" r="4" fill="#ffffff"/>
<circle cx="-22" cy="-12" r="4" fill="#ffffff"/>
<circle cx="-34" cy="-9" r="2.8" fill="#064e3b"/>
<circle cx="-22" cy="-11" r="2.8" fill="#064e3b"/>
<circle cx="-34" cy="-8" r="1.6" fill="#0d0d0d"/>
<circle cx="-22" cy="-10" r="1.6" fill="#0d0d0d"/>
<circle cx="-33" cy="-11" r="1" fill="#ffffff"/>
<circle cx="-21" cy="-13" r="1" fill="#ffffff"/>
</g>
</svg>
