<svg xmlns="http://www.w3.org/2000/svg" viewBox="0 0 200 200" width="200" height="200">
<title>Red eft (Eastern newt) — Notophthalmus viridescens</title>
<g transform="translate(100, 100)">
<ellipse cx="6" cy="0" rx="36" ry="11" fill="#ea580c"/>
<path d="M 42 0 Q 52 -2 56 -4 Q 52 4 42 6 Z" fill="#ea580c"/>
<circle cx="-12" cy="-2" r="2" fill="#3a1a08"/>
<circle cx="-2" cy="-1" r="2" fill="#3a1a08"/>
<circle cx="8" cy="-2" r="2" fill="#3a1a08"/>
<circle cx="18" cy="-1" r="2" fill="#3a1a08"/>
<circle cx="28" cy="-2" r="2" fill="#3a1a08"/>
<circle cx="-12" cy="-2" r="0.8" fill="#fde047"/>
<circle cx="-2" cy="-1" r="0.8" fill="#fde047"/>
<circle cx="8" cy="-2" r="0.8" fill="#fde047"/>
<circle cx="18" cy="-1" r="0.8" fill="#fde047"/>
<circle cx="28" cy="-2" r="0.8" fill="#fde047"/>
<ellipse cx="-14" cy="12" rx="3.5" ry="3" fill="#c2410c"/>
<ellipse cx="-2" cy="12" rx="3.5" ry="3" fill="#c2410c"/>
<ellipse cx="14" cy="12" rx="3.5" ry="3" fill="#c2410c"/>
<ellipse cx="26" cy="12" rx="3.5" ry="3" fill="#c2410c"/>
<ellipse cx="-30" cy="-1" rx="15" ry="12" fill="#ea580c"/>
<circle cx="-36" cy="-3" r="4.5" fill="#ffffff"/>
<circle cx="-24" cy="-3" r="4.5" fill="#ffffff"/>
<circle cx="-36" cy="-2" r="3.2" fill="#67e8f9"/>
<circle cx="-24" cy="-2" r="3.2" fill="#67e8f9"/>
<circle cx="-36" cy="-1" r="1.8" fill="#0d0d0d"/>
<circle cx="-24" cy="-1" r="1.8" fill="#0d0d0d"/>
<circle cx="-35" cy="-4" r="1.1" fill="#ffffff"/>
<circle cx="-23" cy="-4" r="1.1" fill="#ffffff"/>
<path d="M -40 5 Q -30 9 -20 5" stroke="#3a1a08" stroke-width="1.2" fill="none" stroke-linecap="round"/>
</g>
</svg>
