<svg xmlns="http://www.w3.org/2000/svg" viewBox="0 0 200 200" width="200" height="200">
<title>Eastern Wild Turkey Ghost — Meleagris gallopavo silvestris (Legacy)</title>
<g transform="translate(100, 100)">
<path d="M -45,-15 Q -60,-50 -38,-55 Q -55,-25 -30,-10 Z" fill="#5a3a1f" opacity="0.5"/>
<path d="M 45,-15 Q 60,-50 38,-55 Q 55,-25 30,-10 Z" fill="#5a3a1f" opacity="0.5"/>
<path d="M 0,-55 Q -20,-65 -38,-55" fill="#7a4a25" opacity="0.5"/>
<path d="M 0,-55 Q 20,-65 38,-55" fill="#7a4a25" opacity="0.5"/>
<ellipse cx="0" cy="25" rx="36" ry="38" fill="#3a2818"/>
<circle cx="0" cy="-10" r="30" fill="#c4a070"/>
<circle cx="-12" cy="-12" r="7" fill="#fff"/>
<circle cx="12" cy="-12" r="7" fill="#fff"/>
<circle cx="-11" cy="-11" r="4.5" fill="#8c2e2e"/>
<circle cx="13" cy="-11" r="4.5" fill="#8c2e2e"/>
<circle cx="-10" cy="-12" r="2.2" fill="#000"/>
<circle cx="14" cy="-12" r="2.2" fill="#000"/>
<circle cx="-8" cy="-14" r="1" fill="#fff"/>
<circle cx="16" cy="-14" r="1" fill="#fff"/>
<path d="M -3,0 L 0,6 L 3,0 Z" fill="#f5a623"/>
<path d="M 0,6 Q -2,12 -1,15" stroke="#c84a4a" stroke-width="2.5" fill="none"/>
<path d="M -6,12 Q 0,16 6,12" stroke="#000" stroke-width="1.5" fill="none"/>
</g>
</svg>
